<mxfile host="app.diagrams.net" modified="2024-06-18T23:19:33.153Z" agent="Mozilla/5.0 (Windows NT 10.0; Win64; x64) AppleWebKit/537.36 (KHTML, like Gecko) Chrome/125.0.0.0 Safari/537.36" etag="Yawd7vPcy0p25TMJeKIB" version="24.5.5" type="device">
  <diagram name="Page-1" id="43LduGOrgTE1VKJ2mfo7">
    <mxGraphModel dx="1261" dy="693" grid="1" gridSize="10" guides="1" tooltips="1" connect="1" arrows="1" fold="1" page="1" pageScale="1" pageWidth="850" pageHeight="1100" math="0" shadow="0">
      <root>
        <mxCell id="0" />
        <mxCell id="1" parent="0" />
        <mxCell id="8PM--N_4yC4qCDSmvzu3-9" style="edgeStyle=orthogonalEdgeStyle;rounded=0;orthogonalLoop=1;jettySize=auto;html=1;entryX=0.5;entryY=0;entryDx=0;entryDy=0;" edge="1" parent="1" source="8PM--N_4yC4qCDSmvzu3-1" target="8PM--N_4yC4qCDSmvzu3-5">
          <mxGeometry relative="1" as="geometry">
            <Array as="points">
              <mxPoint x="240" y="125" />
              <mxPoint x="160" y="125" />
              <mxPoint x="160" y="150" />
            </Array>
          </mxGeometry>
        </mxCell>
        <mxCell id="8PM--N_4yC4qCDSmvzu3-10" style="edgeStyle=orthogonalEdgeStyle;rounded=0;orthogonalLoop=1;jettySize=auto;html=1;entryX=0.5;entryY=0;entryDx=0;entryDy=0;" edge="1" parent="1" source="8PM--N_4yC4qCDSmvzu3-1" target="8PM--N_4yC4qCDSmvzu3-6">
          <mxGeometry relative="1" as="geometry">
            <Array as="points">
              <mxPoint x="240" y="125" />
              <mxPoint x="320" y="125" />
              <mxPoint x="320" y="150" />
            </Array>
          </mxGeometry>
        </mxCell>
        <mxCell id="8PM--N_4yC4qCDSmvzu3-1" value="&lt;b&gt;&lt;font style=&quot;font-size: 18px;&quot;&gt;Production&lt;/font&gt;&lt;/b&gt;" style="rounded=0;whiteSpace=wrap;html=1;" vertex="1" parent="1">
          <mxGeometry x="160" y="50" width="160" height="50" as="geometry" />
        </mxCell>
        <mxCell id="8PM--N_4yC4qCDSmvzu3-25" style="edgeStyle=orthogonalEdgeStyle;rounded=0;orthogonalLoop=1;jettySize=auto;html=1;entryX=1;entryY=0.5;entryDx=0;entryDy=0;" edge="1" parent="1" source="8PM--N_4yC4qCDSmvzu3-2" target="8PM--N_4yC4qCDSmvzu3-23">
          <mxGeometry relative="1" as="geometry" />
        </mxCell>
        <mxCell id="8PM--N_4yC4qCDSmvzu3-26" style="edgeStyle=orthogonalEdgeStyle;rounded=0;orthogonalLoop=1;jettySize=auto;html=1;entryX=0;entryY=0.5;entryDx=0;entryDy=0;" edge="1" parent="1" source="8PM--N_4yC4qCDSmvzu3-2" target="8PM--N_4yC4qCDSmvzu3-24">
          <mxGeometry relative="1" as="geometry" />
        </mxCell>
        <mxCell id="8PM--N_4yC4qCDSmvzu3-2" value="&lt;b&gt;&lt;font style=&quot;font-size: 18px;&quot;&gt;Logistics&lt;/font&gt;&lt;/b&gt;" style="rounded=0;whiteSpace=wrap;html=1;" vertex="1" parent="1">
          <mxGeometry x="520" y="50" width="160" height="50" as="geometry" />
        </mxCell>
        <mxCell id="8PM--N_4yC4qCDSmvzu3-22" style="edgeStyle=orthogonalEdgeStyle;rounded=0;orthogonalLoop=1;jettySize=auto;html=1;entryX=0.5;entryY=0;entryDx=0;entryDy=0;" edge="1" parent="1" source="8PM--N_4yC4qCDSmvzu3-3" target="8PM--N_4yC4qCDSmvzu3-21">
          <mxGeometry relative="1" as="geometry" />
        </mxCell>
        <mxCell id="8PM--N_4yC4qCDSmvzu3-3" value="&lt;b&gt;&lt;font style=&quot;font-size: 18px;&quot;&gt;Sales&lt;/font&gt;&lt;/b&gt;&lt;span style=&quot;color: rgba(0, 0, 0, 0); font-family: monospace; font-size: 0px; text-align: start; text-wrap: nowrap;&quot;&gt;%3CmxGraphModel%3E%3Croot%3E%3CmxCell%20id%3D%220%22%2F%3E%3CmxCell%20id%3D%221%22%20parent%3D%220%22%2F%3E%3CmxCell%20id%3D%222%22%20value%3D%22%26lt%3Bb%26gt%3B%26lt%3Bfont%20style%3D%26quot%3Bfont-size%3A%2018px%3B%26quot%3B%26gt%3BProduction%26lt%3B%2Ffont%26gt%3B%26lt%3B%2Fb%26gt%3B%22%20style%3D%22rounded%3D0%3BwhiteSpace%3Dwrap%3Bhtml%3D1%3B%22%20vertex%3D%221%22%20parent%3D%221%22%3E%3CmxGeometry%20x%3D%2250%22%20y%3D%2260%22%20width%3D%22160%22%20height%3D%2250%22%20as%3D%22geometry%22%2F%3E%3C%2FmxCell%3E%3C%2Froot%3E%3C%2FmxGraphModel%3E&lt;/span&gt;" style="rounded=0;whiteSpace=wrap;html=1;" vertex="1" parent="1">
          <mxGeometry x="160" y="420" width="160" height="50" as="geometry" />
        </mxCell>
        <mxCell id="8PM--N_4yC4qCDSmvzu3-4" value="&lt;b&gt;&lt;font style=&quot;font-size: 18px;&quot;&gt;Technology&lt;/font&gt;&lt;/b&gt;" style="rounded=0;whiteSpace=wrap;html=1;" vertex="1" parent="1">
          <mxGeometry x="520" y="420" width="160" height="50" as="geometry" />
        </mxCell>
        <mxCell id="8PM--N_4yC4qCDSmvzu3-5" value="&lt;b&gt;&lt;font style=&quot;font-size: 14px;&quot;&gt;Plantation&lt;/font&gt;&lt;/b&gt;" style="rounded=1;whiteSpace=wrap;html=1;" vertex="1" parent="1">
          <mxGeometry x="100" y="150" width="110" height="30" as="geometry" />
        </mxCell>
        <mxCell id="8PM--N_4yC4qCDSmvzu3-12" style="edgeStyle=orthogonalEdgeStyle;rounded=0;orthogonalLoop=1;jettySize=auto;html=1;" edge="1" parent="1" source="8PM--N_4yC4qCDSmvzu3-6" target="8PM--N_4yC4qCDSmvzu3-13">
          <mxGeometry relative="1" as="geometry">
            <mxPoint x="370" y="210" as="targetPoint" />
          </mxGeometry>
        </mxCell>
        <mxCell id="8PM--N_4yC4qCDSmvzu3-6" value="&lt;b&gt;&lt;font style=&quot;font-size: 14px;&quot;&gt;Laboraty&lt;/font&gt;&lt;/b&gt;" style="rounded=1;whiteSpace=wrap;html=1;" vertex="1" parent="1">
          <mxGeometry x="270" y="150" width="110" height="30" as="geometry" />
        </mxCell>
        <mxCell id="8PM--N_4yC4qCDSmvzu3-13" value="R&amp;amp;D" style="shape=process;whiteSpace=wrap;html=1;backgroundOutline=1;" vertex="1" parent="1">
          <mxGeometry x="282.5" y="210" width="85" height="20" as="geometry" />
        </mxCell>
        <mxCell id="8PM--N_4yC4qCDSmvzu3-14" value="&lt;b&gt;&lt;font style=&quot;font-size: 14px;&quot;&gt;Transport&lt;/font&gt;&lt;/b&gt;" style="rounded=1;whiteSpace=wrap;html=1;" vertex="1" parent="1">
          <mxGeometry x="460" y="140" width="110" height="30" as="geometry" />
        </mxCell>
        <mxCell id="8PM--N_4yC4qCDSmvzu3-15" value="&lt;b&gt;&lt;font style=&quot;font-size: 14px;&quot;&gt;Processing&lt;/font&gt;&lt;/b&gt;" style="rounded=1;whiteSpace=wrap;html=1;" vertex="1" parent="1">
          <mxGeometry x="630" y="140" width="110" height="30" as="geometry" />
        </mxCell>
        <mxCell id="8PM--N_4yC4qCDSmvzu3-19" style="edgeStyle=orthogonalEdgeStyle;rounded=0;orthogonalLoop=1;jettySize=auto;html=1;entryX=0.444;entryY=0.073;entryDx=0;entryDy=0;entryPerimeter=0;" edge="1" parent="1" source="8PM--N_4yC4qCDSmvzu3-2" target="8PM--N_4yC4qCDSmvzu3-15">
          <mxGeometry relative="1" as="geometry" />
        </mxCell>
        <mxCell id="8PM--N_4yC4qCDSmvzu3-20" style="edgeStyle=orthogonalEdgeStyle;rounded=0;orthogonalLoop=1;jettySize=auto;html=1;entryX=0.568;entryY=-0.018;entryDx=0;entryDy=0;entryPerimeter=0;" edge="1" parent="1" source="8PM--N_4yC4qCDSmvzu3-2" target="8PM--N_4yC4qCDSmvzu3-14">
          <mxGeometry relative="1" as="geometry" />
        </mxCell>
        <mxCell id="8PM--N_4yC4qCDSmvzu3-21" value="&lt;b&gt;&lt;font style=&quot;font-size: 14px;&quot;&gt;Campaigns&lt;/font&gt;&lt;/b&gt;" style="rounded=1;whiteSpace=wrap;html=1;" vertex="1" parent="1">
          <mxGeometry x="80" y="520" width="110" height="30" as="geometry" />
        </mxCell>
        <mxCell id="8PM--N_4yC4qCDSmvzu3-23" value="&lt;b&gt;&lt;font style=&quot;font-size: 14px;&quot;&gt;Administration&lt;/font&gt;&lt;/b&gt;" style="rounded=1;whiteSpace=wrap;html=1;" vertex="1" parent="1">
          <mxGeometry x="460" y="190" width="110" height="30" as="geometry" />
        </mxCell>
        <mxCell id="8PM--N_4yC4qCDSmvzu3-24" value="&lt;b&gt;&lt;font style=&quot;font-size: 14px;&quot;&gt;Warehouse&lt;/font&gt;&lt;/b&gt;" style="rounded=1;whiteSpace=wrap;html=1;" vertex="1" parent="1">
          <mxGeometry x="630" y="190" width="110" height="30" as="geometry" />
        </mxCell>
      </root>
    </mxGraphModel>
  </diagram>
</mxfile>
